# xmcd
#
# Track frame offsets:
#	150
#	11849
#	28397
#	45578
#	60653
#	77050
#	97066
#	110467
#	128682
#	144779
#	158562
#
# Disc length: 2364 seconds
#
# Revision: 0
# Processed by: cddbd v1.5.2PL0 Copyright (c) Steve Scherf et al.
# Submitted via: audiograbber 1.83.01
#
DISCID=89093a0b
DTITLE=Dolly Parton/Linda Ronstadt/Emmylou Harris - The Complete Trio Collectio
DTITLE=n (Deluxe) CD1
DYEAR=2016
DGENRE=Country
TTITLE0=The Pain Of Loving You (Remastered)
TTITLE1=Making Plans (Remastered)
TTITLE2=To Know Him Is To Love Him (Remastered)
TTITLE3=Hobo's Meditation (Remastered)
TTITLE4=Wildflowers (Remastered)
TTITLE5=Telling Me Lies (Remastered)
TTITLE6=My Dear Companion (Remastered)
TTITLE7=Those Memories Of You (Remastered)
TTITLE8=I've Had Enough (Remastered)
TTITLE9=Rosewood Casket (Remastered)
TTITLE10=Farther Along (Remastered)
EXTD=
EXTT0=
EXTT1=
EXTT2=
EXTT3=
EXTT4=
EXTT5=
EXTT6=
EXTT7=
EXTT8=
EXTT9=
EXTT10=
PLAYORDER=
